<svg xmlns="http://www.w3.org/2000/svg" version="1.1" xmlns:xlink="http://www.w3.org/1999/xlink" xmlns:svgjs="http://svgjs.com/svgjs" width="1440" height="560" preserveAspectRatio="none" viewBox="0 0 1440 560"><g mask="url(&quot;#SvgjsMask1038&quot;)" fill="none"><rect width="1440" height="560" x="0" y="0" fill="rgba(18, 18, 18, 1)"></rect><path d="M 0,45 C 96,83.8 288,248 480,239 C 672,230 768,19.4 960,0 C 1152,-19.4 1344,113.6 1440,142L1440 560L0 560z" fill="rgba(110, 110, 110, 1)"></path><path d="M 0,439 C 57.6,430.2 172.8,384 288,395 C 403.2,406 460.8,494.2 576,494 C 691.2,493.8 748.8,392.4 864,394 C 979.2,395.6 1036.8,515 1152,502 C 1267.2,489 1382.4,363.6 1440,329L1440 560L0 560z" fill="rgba(183, 183, 183, 1)"></path></g><defs><mask id="SvgjsMask1038"><rect width="1440" height="560" fill="#ffffff"></rect></mask></defs></svg>