<svg xmlns="http://www.w3.org/2000/svg" version="1.1" xmlns:xlink="http://www.w3.org/1999/xlink" xmlns:svgjs="http://svgjs.com/svgjs" width="1440" height="560" preserveAspectRatio="none" viewBox="0 0 1440 560"><g mask="url(&quot;#SvgjsMask1072&quot;)" fill="none"><rect width="1440" height="560" x="0" y="0" fill="rgba(18, 18, 18, 1)"></rect><path d="M -207.48270881923742,369 C -183.48,342.4 -135.48,246.2 -87.4827088192374,236 C -39.48,225.8 -15.48,356.8 32.5172911807626,318 C 80.52,279.2 104.52,40 152.51729118076258,42 C 200.52,44 224.52,285.4 272.5172911807626,328 C 320.52,370.6 344.52,229.8 392.5172911807626,255 C 440.52,280.2 464.52,459.8 512.5172911807626,454 C 560.52,448.2 584.52,234.2 632.5172911807626,226 C 680.52,217.8 704.52,441.6 752.5172911807626,413 C 800.52,384.4 824.52,78.2 872.5172911807626,83 C 920.52,87.8 944.52,412.8 992.5172911807626,437 C 1040.52,461.2 1064.52,202.4 1112.5172911807626,204 C 1160.52,205.6 1184.52,477.4 1232.5172911807626,445 C 1280.52,412.6 1311.02,70.6 1352.5172911807626,42 C 1394.01,13.4 1422.5,250 1440,302" stroke="rgba(255, 255, 255, 1)" stroke-width="2"></path><path d="M -6.086650433330831,468 C 17.91,390.2 65.91,79.4 113.91334956666917,79 C 161.91,78.6 185.91,432.4 233.91334956666918,466 C 281.91,499.6 305.91,260.6 353.9133495666692,247 C 401.91,233.4 425.91,429.2 473.9133495666692,398 C 521.91,366.8 545.91,104 593.9133495666691,91 C 641.91,78 665.91,341.2 713.9133495666691,333 C 761.91,324.8 785.91,15.6 833.9133495666691,50 C 881.91,84.4 905.91,504.8 953.9133495666691,505 C 1001.91,505.2 1025.91,54.8 1073.9133495666692,51 C 1121.91,47.2 1145.91,442.6 1193.9133495666692,486 C 1241.91,529.4 1265.91,286.2 1313.9133495666692,268 C 1361.91,249.8 1385.91,403.6 1433.9133495666692,395 C 1481.91,386.4 1552.7,204.4 1553.9133495666692,225 C 1555.13,245.6 1462.78,443.4 1440,498" stroke="rgba(255, 255, 255, 1)" stroke-width="2"></path></g><defs><mask id="SvgjsMask1072"><rect width="1440" height="560" fill="#ffffff"></rect></mask></defs></svg>