<svg width="1440" height="1230" viewBox="0 0 1440 1230" fill="none" xmlns="http://www.w3.org/2000/svg">
<path d="M1440 0H0V1197H1440V0Z" fill="#121212"/>
<path d="M0 515.325C96 569.16 288 796.988 480 784.5C672 772.013 768 479.805 960 452.888C1152 425.97 1344 610.508 1440 649.913V1229.89H0V515.325Z" fill="#6F6F6F"/>
<path d="M0 1044.57C57.6 1031.09 172.8 960.286 288 977.143C403.2 994 460.8 1129.16 576 1128.86C691.2 1128.55 748.8 973.158 864 975.61C979.2 978.062 1036.8 1161.04 1152 1141.12C1267.2 1121.19 1382.4 929.023 1440 876V1230H0V1044.57Z" fill="#959595"/>
</svg>
