<svg width="1440" height="777" viewBox="0 0 1440 777" fill="none" xmlns="http://www.w3.org/2000/svg">
<g clip-path="url(#clip0_507_513)">
<path d="M1440 0H0V777H1440V0Z" fill="#121212"/>
<path d="M0 62.4375C96 116.272 288 344.1 480 331.612C672 319.125 768 26.9175 960 -3.02792e-05C1152 -26.9175 1344 157.62 1440 197.025V777H0V62.4375Z" fill="#3C3C3C"/>
<path d="M0 609.112C57.6 596.902 172.8 532.8 288 548.062C403.2 563.325 460.8 685.702 576 685.425C691.2 685.147 748.8 544.455 864 546.675C979.2 548.895 1036.8 714.562 1152 696.525C1267.2 678.487 1382.4 504.495 1440 456.487V777H0V609.112Z" fill="#646464"/>
</g>
<defs>
<clipPath id="clip0_507_513">
<rect width="1440" height="777" fill="white"/>
</clipPath>
</defs>
</svg>
