<svg width="1440" height="791" viewBox="0 0 1440 791" fill="none" xmlns="http://www.w3.org/2000/svg">
<g clip-path="url(#clip0_507_508)">
<path d="M3675 -167H-931V813H3675V-167Z" fill="#121212"/>
<path d="M-1594.66 521.213C-1517.88 483.64 -1364.35 347.758 -1210.82 333.35C-1057.28 318.943 -980.515 503.98 -826.99 449.175C-673.448 394.37 -596.681 56.5 -443.157 59.325C-289.615 62.15 -212.848 403.128 -59.3232 463.3C94.2188 523.473 170.985 324.593 324.51 360.188C478.052 395.783 554.819 649.468 708.343 641.275C861.885 633.083 938.652 330.808 1092.18 319.225C1245.72 307.643 1322.49 623.76 1476.01 583.363C1629.55 542.965 1706.32 110.458 1859.84 117.238C2013.39 124.018 2090.15 583.08 2243.68 617.263C2397.22 651.445 2473.99 285.89 2627.51 288.15C2781.05 290.41 2857.82 674.328 3011.34 628.563C3164.89 582.798 3262.44 99.7225 3395.18 59.325C3527.9 18.9275 3619.02 353.125 3675 426.575" stroke="#8B8B8B" stroke-width="2"/>
<path d="M-950.469 661.05C-873.713 551.158 -720.18 112.153 -566.636 111.588C-413.113 111.023 -336.346 610.765 -182.802 658.225C-29.2795 705.685 47.4871 368.098 201.031 348.888C354.554 329.678 431.32 606.245 584.865 562.175C738.387 518.105 815.154 146.9 968.698 128.538C1122.22 110.175 1198.99 481.945 1352.53 470.363C1506.05 458.78 1582.82 22.0351 1736.36 70.6251C1889.89 119.215 1966.65 713.03 2120.2 713.313C2273.72 713.595 2350.49 77.4051 2504.03 72.0376C2657.55 66.6701 2734.32 625.173 2887.86 686.475C3041.39 747.778 3118.15 404.258 3271.7 378.55C3425.22 352.843 3501.99 570.085 3655.53 557.938C3809.05 545.79 4035.48 288.715 4039.36 317.813C4043.26 346.91 3747.86 626.303 3675 703.425" stroke="#8B8B8B" stroke-width="2"/>
</g>
<defs>
<clipPath id="clip0_507_508">
<rect width="4606" height="791" fill="white" transform="translate(-931)"/>
</clipPath>
</defs>
</svg>
