<svg id="圖層_1" data-name="圖層 1" xmlns="http://www.w3.org/2000/svg" viewBox="0 0 1814.17 1814.17"><defs><style>.cls-1{fill:#040000;}.cls-2{fill:none;stroke:#fff;stroke-linecap:round;stroke-linejoin:round;stroke-width:35px;}.cls-3{fill:#fff;}</style></defs><rect class="cls-1" width="1814.17" height="1814.17"/><polyline class="cls-2" points="499.01 323.05 1125.13 323.05 782.58 665.6 1131.93 1014.96 499.01 1014.96"/><polyline class="cls-2" points="903.12 234.54 394.96 234.54 394.96 1053.02"/><line class="cls-2" x1="679.41" y1="832.09" x2="679.41" y2="931.75"/><polyline class="cls-2" points="1114.7 709.48 1419.21 1013.99 1112.76 1320.43"/><polyline class="cls-2" points="989.94 709.48 1294.45 1013.99 988 1320.43"/><line class="cls-2" x1="619.1" y1="539.15" x2="743.72" y2="414.53"/><polygon class="cls-2" points="535.28 414.53 857.55 414.53 601.87 670.21 863.42 931.75 535.28 931.75 535.28 414.53"/><path class="cls-3" d="M417.66,1514.22H373.92v-10.87h43.74Z" transform="translate(-0.11)"/><path class="cls-3" d="M560.32,1523.73a26.26,26.26,0,0,1-4.14,14.5,30.73,30.73,0,0,1-12,10.55,57.29,57.29,0,0,1-15.37,5.28,99.74,99.74,0,0,1-19.15,1.65c-5.32,0-10.77-.09-16.38-.28s-8.73-.31-9.37-.36q.24-15.46.32-29.2t.08-26.23q0-23.69-.2-37.5c-.14-9.2-.2-14-.2-14.37.75-.06,3.71-.19,8.89-.41s10.2-.32,15.08-.32a99.23,99.23,0,0,1,15.29,1.09,54.39,54.39,0,0,1,11.83,3,26.3,26.3,0,0,1,11.5,8.34,21.2,21.2,0,0,1,4.19,13.33,22.49,22.49,0,0,1-5.26,14.7,26.92,26.92,0,0,1-12,8.74v.81a36.74,36.74,0,0,1,10.76,2.61,27.71,27.71,0,0,1,9.16,6.09,24.13,24.13,0,0,1,5.22,7.65A26.52,26.52,0,0,1,560.32,1523.73Zm-13.69.4a17.92,17.92,0,0,0-1.45-7.37,21.79,21.79,0,0,0-4.35-6.24,19.83,19.83,0,0,0-7.53-4.43,31.13,31.13,0,0,0-10.43-1.69c-3,0-5.44,0-7.29.08s-3.08.08-3.67.08l-1.29-9.67a44.7,44.7,0,0,0,10.51-1.41,25.73,25.73,0,0,0,8.1-3.74,19.65,19.65,0,0,0,5.56-6.17,16.42,16.42,0,0,0,2.17-8.41,14.84,14.84,0,0,0-2.41-8.5A16.79,16.79,0,0,0,528,1461a32.16,32.16,0,0,0-8.68-2.54,68.46,68.46,0,0,0-11-.85q-3.78,0-6.95.12c-2.12.08-3.47.12-4.06.12q-.24,11.78-.28,25t0,19.17q0,13.86.12,27.83t.12,15l4.3.2q2.7.12,5.19.12a141.06,141.06,0,0,0,17.17-1,36.21,36.21,0,0,0,13.39-4,18.41,18.41,0,0,0,7-6.52A17.83,17.83,0,0,0,546.63,1524.13Z" transform="translate(-0.11)"/><path class="cls-3" d="M657.8,1555.31l-10.72-.08q-10-.09-24.73-.08-10.23,0-18.73.08t-14.38.08q.16-4.68.29-20.22t.12-32.14q0-9.1-.08-24.09t-.33-31q5.73,0,14.3.08t17.68.08q15.39,0,25.06-.08c6.44-.06,9.93-.08,10.47-.08V1459l-10.11-.12q-9.3-.12-23.16-.12c-4,0-8,0-11.84,0s-6.93,0-9.18,0q0,9.11-.17,18.17t-.16,17.12q3.63,0,8.58,0c3.31,0,6.25,0,8.82,0q14.18,0,25.34-.12l11.88-.13v11.12l-13.29-.12q-12.65-.12-23.12-.12c-2.58,0-5.65,0-9.23,0s-6.56,0-9,0q0,15.22.08,24.17t.16,15q4.75.09,11.52.12t14.58,0q12,0,20.18-.08l9.15-.08Z" transform="translate(-0.11)"/><path class="cls-3" d="M778.55,1551.16,766,1557.64q-.33-.89-5.16-12T748.1,1517H700.4q-8.49,18.78-13.1,29.08t-5.1,11.52l-10.79-5.84q2.1-4.18,17.28-36.92t31.54-68.81H730.7q16.11,36.08,31.66,69.9T778.55,1551.16Zm-35-44.43q-4.27-9.82-9-20.55t-10-22.42l-.32.07q-4.07,8.87-9.78,21.78T705,1506.73l0,.08h38.59Z" transform="translate(-0.11)"/><path class="cls-3" d="M872.72,1459c-.86,0-4.46,0-10.79-.08s-15.93-.08-28.76-.08q-.17,16.53-.24,25.08t-.08,23.3q0,14.19.12,28.82t.2,19.47H819.88q.15-4.83.28-19.75t.12-29.19v-22.29q0-8.27-.24-25.44-17.16-.08-27.83,0l-11.72.12v-11.11q8.29,0,20.17.08T826,1448q19.5,0,32.58-.08t14.14-.08Z" transform="translate(-0.11)"/><path class="cls-3" d="M963.75,1545.56c0,.48-.2,1.84-.44,4.07s-.47,4.66-.69,7.29H959.8q-19.65,0-35-5t-25.13-14.38A47.77,47.77,0,0,1,888.87,1522a51.5,51.5,0,0,1-4-20.79,45.63,45.63,0,0,1,3.94-19.13,51.86,51.86,0,0,1,10.32-15.1q9.26-9.35,24.89-14.82a100.14,100.14,0,0,1,33.43-5.48h3.62c.06,1,.16,2.51.32,4.63s.35,4.42.57,6.89h-2.74a104.43,104.43,0,0,0-20.89,2.21,63.8,63.8,0,0,0-18.64,6.65,42.46,42.46,0,0,0-15.65,14.86,37.14,37.14,0,0,0-5.48,19.54,40.15,40.15,0,0,0,4.92,19.77q4.92,8.91,15.57,15a66.37,66.37,0,0,0,19.47,7.25,104.51,104.51,0,0,0,21.42,2.25h1.53C962.19,1545.64,963,1545.62,963.75,1545.56Z" transform="translate(-0.11)"/><path class="cls-3" d="M1083,1501.58a62.6,62.6,0,0,1-4.47,24,53.52,53.52,0,0,1-11.63,18,51.58,51.58,0,0,1-54.9,11.64A47.92,47.92,0,0,1,996,1545a54.41,54.41,0,0,1-12.6-18.49,63.06,63.06,0,0,1-4.79-25.09,64.33,64.33,0,0,1,3.79-22.6,54.58,54.58,0,0,1,11.35-18.33,48.64,48.64,0,0,1,16.66-11.72,52.87,52.87,0,0,1,40.49-.24,48.54,48.54,0,0,1,16,10.84,53.35,53.35,0,0,1,12,19A66,66,0,0,1,1083,1501.58Zm-13.7,1.29a62.4,62.4,0,0,0-3.51-20.59,42.05,42.05,0,0,0-10.68-17,35.83,35.83,0,0,0-10.85-7.25,33.68,33.68,0,0,0-13.43-2.58,34.49,34.49,0,0,0-13.5,2.62,35,35,0,0,0-11.33,7.69,44.27,44.27,0,0,0-10,16,58.56,58.56,0,0,0,.08,40.6,43.23,43.23,0,0,0,10.36,15.55,35.88,35.88,0,0,0,10.89,7.13,33.75,33.75,0,0,0,13.46,2.7,34.5,34.5,0,0,0,13.43-2.62,36.65,36.65,0,0,0,11.33-7.53,44.7,44.7,0,0,0,9.92-14.79A49.83,49.83,0,0,0,1069.28,1502.87Z" transform="translate(-0.11)"/><path class="cls-3" d="M1242.4,1553.86l-13.13,2.58L1212.64,1466l-.1-.12q-3.15,6.52-14,30.31t-21,47.73h-11.12q-9.59-22.17-21.19-47.91t-13.62-30h-.16q-.49,2.1-6.54,30.82t-11.53,59.44L1101,1554q8.06-34.73,15.06-68.8t7.66-37l12.8-1.85,11.4,25.93q10.59,24.09,24.94,55.51h.48q11-24.64,23.2-52.52t12.73-28.92l12.16,1q.24,1.77,6.69,35.33T1242.4,1553.86Z" transform="translate(-0.11)"/><path class="cls-3" d="M1337,1555.31l-10.71-.08q-10-.09-24.73-.08-10.24,0-18.73.08t-14.38.08q.15-4.68.28-20.22t.12-32.14q0-9.1-.08-24.09t-.32-31q5.71,0,14.29.08t17.69.08q15.38,0,25-.08c6.44-.06,9.93-.08,10.47-.08V1459l-10.11-.12q-9.3-.12-23.16-.12c-4,0-8,0-11.84,0s-6.93,0-9.18,0q0,9.11-.16,18.17t-.16,17.12q3.62,0,8.57,0c3.31,0,6.25,0,8.83,0q14.18,0,25.33-.12l11.88-.13v11.12l-13.29-.12q-12.64-.12-23.12-.12-3.87,0-9.22,0t-9,0q0,15.22.08,24.17t.16,15c3.16.06,7,.1,11.52.12s9.37,0,14.58,0q12,0,20.18-.08l9.14-.08Z" transform="translate(-0.11)"/><path class="cls-3" d="M1440.57,1514.22h-43.75v-10.87h43.75Z" transform="translate(-0.11)"/></svg>